<svg clip-rule="evenodd" fill-rule="evenodd" stroke-linejoin="round" stroke-miterlimit="2" viewBox="0 0 1210 1372" xmlns="http://www.w3.org/2000/svg"><g fill-rule="nonzero"><path d="m1209.11 0-110.153 1234-495.143 137.27-493.78-137.077-110.037-1234.19h1209.11z" fill="#264de4"/><path d="m1004.66 1155.42 94.133-1054.51h-494.233v1165.43l400.1-110.923z" fill="#2965f1"/><g fill="#ebebeb"><path d="m252.257 558.657 13.566 151.366h338.734v-151.366z"/><path d="m604.557 252.283h-379.56l13.76 151.37h365.8z"/><path d="m604.557 1109.26v-157.486l-.664.176-168.58-45.52-10.776-120.723h-151.95l21.206 237.67 310.067 86.077z"/></g><path d="m790.427 710.023-17.57 196.314-168.824 45.566v157.48l310.314-86.003 2.276-25.573 35.57-398.504 3.694-40.646 27.326-306.374h-379.18v151.37h213.294l-13.774 155.004h-199.52v151.366z" fill="#fff"/></g></svg>