<svg clip-rule="evenodd" fill-rule="evenodd" stroke-linejoin="round" stroke-miterlimit="2" viewBox="0 0 2625 2625" xmlns="http://www.w3.org/2000/svg"><path d="m0 0h2625v2625h-2625z" fill="#f7df1e"/><path d="m1763.33 2050.79c52.875 86.333 121.667 149.791 243.334 149.791 102.208 0 167.5-51.083 167.5-121.666 0-84.584-67.084-114.542-179.584-163.75l-61.666-26.459c-178-75.833-296.25-170.833-296.25-371.666 0-185 140.958-325.834 361.25-325.834 156.833 0 269.583 54.584 350.833 197.5l-192.083 123.334c-42.292-75.834-87.917-105.709-158.75-105.709-72.25 0-118.042 45.834-118.042 105.709 0 74 45.833 103.958 151.667 149.791l61.666 26.417c209.584 89.875 327.917 181.5 327.917 387.5 0 222.083-174.458 343.75-408.75 343.75-229.083 0-377.083-109.167-449.5-252.25zm-871.375 21.375c38.75 68.75 74 126.875 158.75 126.875 81.042 0 132.167-31.709 132.167-155v-838.75h246.667v842.083c0 255.417-149.75 371.667-368.334 371.667-197.5 0-311.875-102.209-370.041-225.313z" fill-rule="nonzero"/></svg>