<svg clip-rule="evenodd" fill-rule="evenodd" stroke-linejoin="round" stroke-miterlimit="2" viewBox="0 0 1718 1718" xmlns="http://www.w3.org/2000/svg"><path d="m1717.58 230.958c0-127.469-103.489-230.958-230.958-230.958h-1255.67c-127.469 0-230.958 103.489-230.958 230.958v1255.67c0 127.469 103.489 230.958 230.958 230.958h1255.67c127.469 0 230.958-103.489 230.958-230.958z"/><g fill="#fefefe"><path d="m1023 556.625h257.958v73.208h-257.958z"/><path d="m786.458 812.958c92.917-16.875 83.334-125 83.334-125-7.75-147.125-149.25-149.208-149.25-149.208h-346.334v616.667h336.75c184.25-5.917 182.5-174.584 182.5-174.584 7-153.208-107-167.875-107-167.875zm-266.958-167h152.417c16.268-.169 32.182 4.805 45.458 14.209 27.875 20.458 25 56.625 25 56.625v1.916c0 38.667-34.208 68.917-75.25 68.917h-147.625zm240.833 318.167c-.13 43.796-36.203 79.761-79.999 79.761-.445 0-.889-.004-1.334-.011h-159.5v-163.917h164.625c17.708 0 35.875 4.709 49.083 16.459 30 26.666 27.042 65.5 27.042 65.5.042.75.083 1.458.083 2.208z" fill-rule="nonzero"/><path d="m1257.83 990s-5.625 70.125-105.875 64.208c0 0-101.083-1.708-102.791-109h322.708s12.5-109.791-26.208-168.083c0 0-40.542-100-187.5-103.083 0 0-176.834-12.125-228.917 169.791 0 0-19.417 92.084 0 161.375 0 0 45.833 151.209 222.75 149.5 0 0 215.417 20.292 221.875-164.708zm-110.625-224.458s94.834-11.792 107.792 96.875h-202.75s-2.125-79.959 94.958-96.875z" fill-rule="nonzero"/></g></svg>