<?xml version="1.0" encoding="UTF-8" standalone="no"?><!DOCTYPE svg PUBLIC "-//W3C//DTD SVG 1.1//EN" "http://www.w3.org/Graphics/SVG/1.1/DTD/svg11.dtd"><svg width="100%" height="100%" viewBox="0 0 516 516" version="1.1" xmlns="http://www.w3.org/2000/svg" xmlns:xlink="http://www.w3.org/1999/xlink" xml:space="preserve" xmlns:serif="http://www.serif.com/" style="fill-rule:evenodd;clip-rule:evenodd;stroke-linejoin:round;stroke-miterlimit:2;"><g id="original"><path d="M515.333,60.792c0,-33.552 -27.239,-60.792 -60.791,-60.792l-393.75,0c-33.552,0 -60.792,27.24 -60.792,60.792l0,393.708c0,33.552 27.24,60.792 60.792,60.792l393.75,-0c33.552,-0 60.791,-27.24 60.791,-60.792l0,-393.708Z" style="fill:url(#_Linear1);"/><path d="M210.292,242.167c-0,-0 43.75,-3.25 43.75,-54.542c-0,-51.292 -35.792,-76.333 -81.125,-76.333l-149.167,-0l0,286.666l149.167,0c-0,0 91.041,2.875 91.041,-84.625c0,0 4,-71.166 -53.666,-71.166Zm-120.834,-79.917l83.334,0c-0,0 20.291,0 20.291,29.833c0,29.834 -11.916,34.167 -25.458,34.167l-78.125,0l-0.042,-64Zm79.625,184.75l-79.583,0l0,-76.583l83.333,-0c0,-0 30.209,-0.417 30.209,39.375c0.083,33.125 -22,36.875 -33.959,37.208Z" style="fill:#fff;fill-rule:nonzero;"/><path d="M385.417,184.25c-110.25,0 -110.125,110.125 -110.125,110.125c-0,0 -7.584,109.583 110.125,109.583c-0,0 98.083,5.584 98.083,-76.208l-50.417,0c0,0 1.667,30.833 -45.833,30.833c0,0 -50.458,3.375 -50.458,-50l148.541,0c0,0 16.125,-124.333 -99.916,-124.333Zm44.833,86.167l-94.167,-0c0,-0 6.167,-44.167 50.459,-44.167c44.291,0 43.708,44.167 43.708,44.167Z" style="fill:#fff;fill-rule:nonzero;"/><rect x="323.75" y="128.208" width="118.25" height="35.292" style="fill:#fff;"/></g><defs><linearGradient id="_Linear1" x1="0" y1="0" x2="1" y2="0" gradientUnits="userSpaceOnUse" gradientTransform="matrix(3.15551e-14,515.333,-515.333,3.15551e-14,257.667,0)"><stop offset="0" style="stop-color:#005cff;stop-opacity:1"/><stop offset="1" style="stop-color:#0047ad;stop-opacity:1"/></linearGradient></defs></svg>