<?xml version="1.0" encoding="UTF-8" standalone="no"?><!DOCTYPE svg PUBLIC "-//W3C//DTD SVG 1.1//EN" "http://www.w3.org/Graphics/SVG/1.1/DTD/svg11.dtd"><svg width="100%" height="100%" viewBox="0 0 542 542" version="1.1" xmlns="http://www.w3.org/2000/svg" xmlns:xlink="http://www.w3.org/1999/xlink" xml:space="preserve" xmlns:serif="http://www.serif.com/" style="fill-rule:evenodd;clip-rule:evenodd;stroke-linejoin:round;stroke-miterlimit:2;"><path d="M270.973,0c-113.092,0 -146.167,0.117 -152.596,0.65c-23.208,1.929 -37.65,5.583 -53.383,13.417c-12.125,6.021 -21.688,13 -31.125,22.783c-17.188,17.842 -27.605,39.792 -31.375,65.883c-1.834,12.667 -2.367,15.25 -2.475,79.95c-0.042,21.567 -0,49.95 -0,88.021c-0,113 0.125,146.042 0.666,152.459c1.875,22.583 5.417,36.791 12.917,52.333c14.333,29.75 41.708,52.083 73.958,60.417c11.167,2.875 23.5,4.458 39.334,5.208c6.708,0.292 75.083,0.5 143.5,0.5c68.416,-0 136.833,-0.083 143.375,-0.417c18.333,-0.862 28.979,-2.291 40.75,-5.333c32.458,-8.375 59.333,-30.375 73.958,-60.542c7.354,-15.166 11.083,-29.916 12.771,-51.321c0.366,-4.666 0.521,-79.07 0.521,-153.375c-0,-74.316 -0.167,-148.583 -0.534,-153.25c-1.708,-21.75 -5.437,-36.375 -13.029,-51.833c-6.229,-12.654 -13.146,-22.104 -23.187,-31.767c-17.921,-17.116 -39.838,-27.533 -65.955,-31.3c-12.654,-1.829 -15.175,-2.37 -79.925,-2.483l-88.166,0Z" style="fill:url(#_Radial1);fill-rule:nonzero;"/><path d="M270.973,0c-113.092,0 -146.167,0.117 -152.596,0.65c-23.208,1.929 -37.65,5.583 -53.383,13.417c-12.125,6.021 -21.688,13 -31.125,22.783c-17.188,17.842 -27.605,39.792 -31.375,65.883c-1.834,12.667 -2.367,15.25 -2.475,79.95c-0.042,21.567 -0,49.95 -0,88.021c-0,113 0.125,146.042 0.666,152.459c1.875,22.583 5.417,36.791 12.917,52.333c14.333,29.75 41.708,52.083 73.958,60.417c11.167,2.875 23.5,4.458 39.334,5.208c6.708,0.292 75.083,0.5 143.5,0.5c68.416,-0 136.833,-0.083 143.375,-0.417c18.333,-0.862 28.979,-2.291 40.75,-5.333c32.458,-8.375 59.333,-30.375 73.958,-60.542c7.354,-15.166 11.083,-29.916 12.771,-51.321c0.366,-4.666 0.521,-79.07 0.521,-153.375c-0,-74.316 -0.167,-148.583 -0.534,-153.25c-1.708,-21.75 -5.437,-36.375 -13.029,-51.833c-6.229,-12.654 -13.146,-22.104 -23.187,-31.767c-17.921,-17.116 -39.838,-27.533 -65.955,-31.3c-12.654,-1.829 -15.175,-2.37 -79.925,-2.483l-88.166,0Z" style="fill:url(#_Radial2);fill-rule:nonzero;"/><path d="M270.848,70.833c-54.317,0 -61.134,0.238 -82.467,1.209c-21.292,0.975 -35.825,4.345 -48.542,9.291c-13.154,5.109 -24.312,11.942 -35.429,23.063c-11.125,11.117 -17.958,22.275 -23.083,35.425c-4.958,12.721 -8.333,27.258 -9.292,48.542c-0.954,21.333 -1.204,28.154 -1.204,82.47c0,54.317 0.242,61.113 1.208,82.446c0.98,21.292 4.35,35.825 9.292,48.542c5.113,13.154 11.946,24.312 23.067,35.429c11.112,11.125 22.271,17.975 35.416,23.083c12.725,4.946 27.263,8.317 48.55,9.292c21.334,0.971 28.146,1.208 82.459,1.208c54.321,0 61.116,-0.237 82.45,-1.208c21.291,-0.975 35.841,-4.346 48.566,-9.292c13.15,-5.108 24.292,-11.958 35.405,-23.083c11.125,-11.117 17.958,-22.275 23.083,-35.425c4.917,-12.721 8.292,-27.258 9.292,-48.542c0.958,-21.333 1.208,-28.133 1.208,-82.45c-0,-54.316 -0.25,-61.133 -1.208,-82.466c-1,-21.292 -4.375,-35.825 -9.292,-48.542c-5.125,-13.154 -11.958,-24.312 -23.083,-35.429c-11.125,-11.125 -22.25,-17.958 -35.417,-23.063c-12.75,-4.945 -27.292,-8.316 -48.583,-9.291c-21.334,-0.971 -28.125,-1.209 -82.459,-1.209l0.063,0Zm-17.942,36.042c5.325,-0.008 11.267,-0 17.942,-0c53.4,-0 59.729,0.192 80.816,1.15c19.5,0.892 30.084,4.15 37.134,6.887c9.333,3.625 15.987,7.959 22.983,14.959c7,7 11.333,13.667 14.967,23c2.737,7.041 6,17.625 6.887,37.125c0.959,21.083 1.167,27.416 1.167,80.791c-0,53.375 -0.208,59.709 -1.167,80.792c-0.891,19.5 -4.15,30.083 -6.887,37.125c-3.625,9.333 -7.967,15.979 -14.967,22.975c-7,7 -13.646,11.333 -22.983,14.958c-7.042,2.75 -17.634,6 -37.134,6.892c-21.083,0.958 -27.416,1.167 -80.816,1.167c-53.404,-0 -59.734,-0.209 -80.817,-1.167c-19.5,-0.9 -30.083,-4.158 -37.137,-6.896c-9.334,-3.625 -16,-7.958 -23,-14.958c-7,-7 -11.334,-13.65 -14.967,-22.988c-2.738,-7.041 -6,-17.625 -6.888,-37.125c-0.958,-21.083 -1.15,-27.416 -1.15,-80.825c0,-53.408 0.192,-59.708 1.15,-80.791c0.892,-19.5 4.15,-30.084 6.888,-37.134c3.625,-9.333 7.967,-16 14.967,-23c7,-7 13.666,-11.333 23,-14.966c7.05,-2.75 17.637,-6 37.137,-6.896c18.45,-0.833 25.6,-1.083 62.875,-1.125l0,0.05Zm124.7,33.208c-13.25,0 -24,10.738 -24,23.992c0,13.25 10.75,24 24,24c13.25,-0 24,-10.75 24,-24c0,-13.25 -10.75,-24 -24,-24l0,0.008Zm-106.758,28.042c-56.721,-0 -102.709,45.987 -102.709,102.708c0,56.721 45.988,102.688 102.709,102.688c56.721,-0 102.691,-45.967 102.691,-102.688c0,-56.721 -45.975,-102.708 -102.695,-102.708l0.004,-0Zm-0,36.042c36.816,-0 66.666,29.845 66.666,66.666c0,36.817 -29.85,66.667 -66.666,66.667c-36.821,-0 -66.667,-29.85 -66.667,-66.667c0,-36.821 29.846,-66.666 66.667,-66.666Z" style="fill:#fff;fill-rule:nonzero;"/><defs><radialGradient id="_Radial1" cx="0" cy="0" r="1" gradientUnits="userSpaceOnUse" gradientTransform="matrix(0,-536.786,499.39,0,143.908,583.337)"><stop offset="0" style="stop-color:#fd5;stop-opacity:1"/><stop offset="0.1" style="stop-color:#fd5;stop-opacity:1"/><stop offset="0.5" style="stop-color:#ff543e;stop-opacity:1"/><stop offset="1" style="stop-color:#c837ab;stop-opacity:1"/></radialGradient><radialGradient id="_Radial2" cx="0" cy="0" r="1" gradientUnits="userSpaceOnUse" gradientTransform="matrix(47.1088,235.278,-970.071,194.236,-90.7491,39.0175)"><stop offset="0" style="stop-color:#3771c8;stop-opacity:1"/><stop offset="0.13" style="stop-color:#3771c8;stop-opacity:1"/><stop offset="1" style="stop-color:#60f;stop-opacity:0"/></radialGradient></defs></svg>