<svg clip-rule="evenodd" fill-rule="evenodd" stroke-linejoin="round" stroke-miterlimit="2" viewBox="0 0 542 542" xmlns="http://www.w3.org/2000/svg" xmlns:xlink="http://www.w3.org/1999/xlink"><radialGradient id="a" cx="0" cy="0" gradientTransform="matrix(0 -536.786 499.39 0 143.908 583.337)" gradientUnits="userSpaceOnUse" r="1"><stop offset="0" stop-color="#fd5"/><stop offset=".1" stop-color="#fd5"/><stop offset=".5" stop-color="#ff543e"/><stop offset="1" stop-color="#c837ab"/></radialGradient><radialGradient id="b" cx="0" cy="0" gradientTransform="matrix(47.1088 235.278 -970.071 194.236 -90.7491 39.0175)" gradientUnits="userSpaceOnUse" r="1"><stop offset="0" stop-color="#3771c8"/><stop offset=".13" stop-color="#3771c8"/><stop offset="1" stop-color="#60f" stop-opacity="0"/></radialGradient><g fill-rule="nonzero"><path d="m270.973 0c-113.092 0-146.167.117-152.596.65-23.208 1.929-37.65 5.583-53.383 13.417-12.125 6.021-21.688 13-31.125 22.783-17.188 17.842-27.605 39.792-31.375 65.883-1.834 12.667-2.367 15.25-2.475 79.95-.042 21.567 0 49.95 0 88.021 0 113 .125 146.042.666 152.459 1.875 22.583 5.417 36.791 12.917 52.333 14.333 29.75 41.708 52.083 73.958 60.417 11.167 2.875 23.5 4.458 39.334 5.208 6.708.292 75.083.5 143.5.5 68.416 0 136.833-.083 143.375-.417 18.333-.862 28.979-2.291 40.75-5.333 32.458-8.375 59.333-30.375 73.958-60.542 7.354-15.166 11.083-29.916 12.771-51.321.366-4.666.521-79.07.521-153.375 0-74.316-.167-148.583-.534-153.25-1.708-21.75-5.437-36.375-13.029-51.833-6.229-12.654-13.146-22.104-23.187-31.767-17.921-17.116-39.838-27.533-65.955-31.3-12.654-1.829-15.175-2.37-79.925-2.483h-88.166z" fill="url(#a)"/><path d="m270.973 0c-113.092 0-146.167.117-152.596.65-23.208 1.929-37.65 5.583-53.383 13.417-12.125 6.021-21.688 13-31.125 22.783-17.188 17.842-27.605 39.792-31.375 65.883-1.834 12.667-2.367 15.25-2.475 79.95-.042 21.567 0 49.95 0 88.021 0 113 .125 146.042.666 152.459 1.875 22.583 5.417 36.791 12.917 52.333 14.333 29.75 41.708 52.083 73.958 60.417 11.167 2.875 23.5 4.458 39.334 5.208 6.708.292 75.083.5 143.5.5 68.416 0 136.833-.083 143.375-.417 18.333-.862 28.979-2.291 40.75-5.333 32.458-8.375 59.333-30.375 73.958-60.542 7.354-15.166 11.083-29.916 12.771-51.321.366-4.666.521-79.07.521-153.375 0-74.316-.167-148.583-.534-153.25-1.708-21.75-5.437-36.375-13.029-51.833-6.229-12.654-13.146-22.104-23.187-31.767-17.921-17.116-39.838-27.533-65.955-31.3-12.654-1.829-15.175-2.37-79.925-2.483h-88.166z" fill="url(#b)"/><path d="m270.848 70.833c-54.317 0-61.134.238-82.467 1.209-21.292.975-35.825 4.345-48.542 9.291-13.154 5.109-24.312 11.942-35.429 23.063-11.125 11.117-17.958 22.275-23.083 35.425-4.958 12.721-8.333 27.258-9.292 48.542-.954 21.333-1.204 28.154-1.204 82.47 0 54.317.242 61.113 1.208 82.446.98 21.292 4.35 35.825 9.292 48.542 5.113 13.154 11.946 24.312 23.067 35.429 11.112 11.125 22.271 17.975 35.416 23.083 12.725 4.946 27.263 8.317 48.55 9.292 21.334.971 28.146 1.208 82.459 1.208 54.321 0 61.116-.237 82.45-1.208 21.291-.975 35.841-4.346 48.566-9.292 13.15-5.108 24.292-11.958 35.405-23.083 11.125-11.117 17.958-22.275 23.083-35.425 4.917-12.721 8.292-27.258 9.292-48.542.958-21.333 1.208-28.133 1.208-82.45 0-54.316-.25-61.133-1.208-82.466-1-21.292-4.375-35.825-9.292-48.542-5.125-13.154-11.958-24.312-23.083-35.429-11.125-11.125-22.25-17.958-35.417-23.063-12.75-4.945-27.292-8.316-48.583-9.291-21.334-.971-28.125-1.209-82.459-1.209zm-17.942 36.042c5.325-.008 11.267 0 17.942 0 53.4 0 59.729.192 80.816 1.15 19.5.892 30.084 4.15 37.134 6.887 9.333 3.625 15.987 7.959 22.983 14.959 7 7 11.333 13.667 14.967 23 2.737 7.041 6 17.625 6.887 37.125.959 21.083 1.167 27.416 1.167 80.791s-.208 59.709-1.167 80.792c-.891 19.5-4.15 30.083-6.887 37.125-3.625 9.333-7.967 15.979-14.967 22.975-7 7-13.646 11.333-22.983 14.958-7.042 2.75-17.634 6-37.134 6.892-21.083.958-27.416 1.167-80.816 1.167-53.404 0-59.734-.209-80.817-1.167-19.5-.9-30.083-4.158-37.137-6.896-9.334-3.625-16-7.958-23-14.958s-11.334-13.65-14.967-22.988c-2.738-7.041-6-17.625-6.888-37.125-.958-21.083-1.15-27.416-1.15-80.825 0-53.408.192-59.708 1.15-80.791.892-19.5 4.15-30.084 6.888-37.134 3.625-9.333 7.967-16 14.967-23s13.666-11.333 23-14.966c7.05-2.75 17.637-6 37.137-6.896 18.45-.833 25.6-1.083 62.875-1.125v.05zm124.7 33.208c-13.25 0-24 10.738-24 23.992 0 13.25 10.75 24 24 24s24-10.75 24-24-10.75-24-24-24zm-106.758 28.042c-56.721 0-102.709 45.987-102.709 102.708s45.988 102.688 102.709 102.688 102.691-45.967 102.691-102.688-45.975-102.708-102.695-102.708zm0 36.042c36.816 0 66.666 29.845 66.666 66.666 0 36.817-29.85 66.667-66.666 66.667-36.821 0-66.667-29.85-66.667-66.667 0-36.821 29.846-66.666 66.667-66.666z" fill="#fff"/></g></svg>