<svg clip-rule="evenodd" fill-rule="evenodd" stroke-linejoin="round" stroke-miterlimit="2" viewBox="0 0 932 932" xmlns="http://www.w3.org/2000/svg"><path d="m72.217 87.498h770.833v758.333h-770.833z" fill="#ebebeb"/><path d="m793.733 793.727h-138.029v-216.159c0-51.545-.921-117.9-71.787-117.9-71.892 0-82.892 56.159-82.892 114.146v219.896h-138.025v-444.508h132.504v60.746h1.859c26.979-46.13 77.329-73.784 130.737-71.8 139.896 0 165.692 92.016 165.692 211.729zm-586.475-505.288h-.016c-43.942 0-80.1-36.154-80.1-80.096 0-43.941 36.158-80.1 80.1-80.1 43.937 0 80.091 36.15 80.1 80.084v.016c0 43.934-36.15 80.092-80.084 80.096m69.013 505.288h-138.171v-444.525h138.171zm586.271-793.663h-793.804c-37.263-.421-68.284 29.879-68.738 67.142v797.1c.438 37.283 31.454 67.617 68.738 67.217h793.804c37.375.47 68.5-29.859 69-67.217v-797.154c-.5-37.342-31.667-67.638-69-67.146" fill="#0a66c2" fill-rule="nonzero"/></svg>