<svg clip-rule="evenodd" fill-rule="evenodd" stroke-linejoin="round" stroke-miterlimit="2" viewBox="0 0 1000 975" xmlns="http://www.w3.org/2000/svg"><g fill-rule="nonzero"><path d="m177.083 0h645.834c97.916 0 177.083 79.167 177.083 177.083v620.834c0 97.916-79.167 177.083-177.083 177.083h-645.834c-97.916 0-177.083-79.167-177.083-177.083v-620.834c0-97.916 79.167-177.083 177.083-177.083z" fill="#300"/><g fill="#ff9a00"><path d="m484.583 585h-155l-31.666 97.917c-.834 3.75-4.167 6.25-7.917 5.833h-78.333c-4.584 0-5.834-2.5-4.584-7.5l134.167-386.25c1.25-4.167 2.5-8.75 4.167-13.75 1.666-8.75 2.5-17.917 2.5-27.083-.417-2.084 1.25-4.167 3.333-4.584h107.917c3.333 0 5 1.25 5.416 3.334l152.084 429.166c1.25 4.584 0 6.667-4.167 6.667h-87.083c-2.917.417-5.834-1.667-6.667-4.583zm-130.833-84.583h105.833c-2.5-8.75-5.833-19.167-9.583-30-3.75-11.25-7.5-23.334-11.25-35.834-4.167-12.916-7.917-25.416-12.083-38.333-4.167-12.917-7.917-25-11.25-37.083-3.334-11.667-6.25-22.5-9.167-32.5h-.833c-3.75 17.916-8.334 35.833-14.167 53.75-6.25 20-12.5 40.833-19.167 61.666-5.833 21.25-12.083 40.834-18.333 58.334z"/><path d="m707.5 320.833c-13.75.417-27.083-5-37.083-14.583-9.584-10.417-14.584-24.167-14.167-38.333-.417-14.167 5-27.5 15-37.084 10-9.583 23.333-14.583 37.083-14.583 16.25 0 28.75 5 37.917 14.583 9.167 10 14.167 23.334 13.75 37.084.417 14.166-4.583 27.916-14.583 38.333-9.584 10-23.75 15.417-37.917 14.583zm-46.667 361.667v-320.833c0-4.167 1.667-5.834 5.417-5.834h82.5c3.75 0 5.417 2.084 5.417 5.834v320.833c0 4.583-1.667 6.667-5.417 6.667h-81.667c-4.166 0-6.25-2.5-6.25-6.667z"/></g></g></svg>