<svg clip-rule="evenodd" fill-rule="evenodd" stroke-linejoin="round" stroke-miterlimit="2" viewBox="0 0 1000 975" xmlns="http://www.w3.org/2000/svg"><g fill-rule="nonzero"><path d="m177.083 0h645.834c97.916 0 177.083 79.167 177.083 177.083v620.834c0 97.916-79.167 177.083-177.083 177.083h-645.834c-97.916 0-177.083-79.167-177.083-177.083v-620.834c0-97.916 79.167-177.083 177.083-177.083z" fill="#001e36"/><g fill="#31a8ff"><path d="m225 683.75v-428.75c0-2.917 1.25-4.583 4.167-4.583 7.083 0 13.75 0 23.333-.417 10-.417 20.417-.417 31.667-.833 11.25-.417 23.333-.417 36.25-.834 12.916-.416 25.416-.416 37.916-.416 34.167 0 62.5 4.166 85.834 12.916 20.833 7.084 40 18.75 55.833 34.167 13.333 13.333 23.75 29.583 30.417 47.5 6.25 17.5 9.583 35.417 9.583 54.167 0 35.833-8.333 65.416-25 88.75-16.667 23.333-40 40.833-67.083 50.833-28.334 10.417-59.584 14.167-93.75 14.167-10 0-16.667 0-20.834-.417-4.166-.417-10-.417-17.916-.417v133.75c.416 2.917-1.667 5.417-4.584 5.834h-80.833c-3.333 0-5-1.667-5-5.417zm90.833-352.917v140c5.834.417 11.25.834 16.25.834h22.084c16.25 0 32.5-2.5 47.916-7.5 13.334-3.75 25-11.667 34.167-22.084 8.75-10.416 12.917-24.583 12.917-42.916.416-12.917-2.917-25.834-9.584-37.084-7.083-10.833-17.083-19.166-29.166-23.75-15.417-6.25-32.084-8.75-49.167-8.333-10.833 0-20.417 0-28.333.417-8.334-.417-14.167 0-17.084.416z"/><path d="m800 445.417c-12.5-6.667-25.833-11.25-40-14.167-15.417-3.333-30.833-5.417-46.667-5.417-8.333-.416-17.083.834-25 2.917-5.416 1.25-10 4.167-12.916 8.333-2.084 3.334-3.334 7.5-3.334 11.25s1.667 7.5 4.167 10.834c3.75 4.583 8.75 8.333 14.167 11.25 9.583 5 19.583 9.583 29.583 13.75 22.5 7.5 44.167 17.916 64.167 30.416 13.75 8.75 25 20.417 32.916 34.584 6.667 13.333 10 27.916 9.584 42.916.416 19.584-5.417 39.167-16.25 55.417-11.667 16.667-27.917 29.583-46.667 37.083-20.417 8.75-45.417 13.334-75.417 13.334-19.166 0-37.916-1.667-56.666-5.417-14.584-2.5-29.167-7.083-42.5-13.333-2.917-1.667-5-4.584-4.584-7.917v-72.5c0-1.25.417-2.917 1.667-3.75s2.5-.417 3.75.417c16.25 9.583 33.333 16.25 51.667 20.416 15.833 4.167 32.5 6.25 49.166 6.25 15.834 0 27.084-2.083 34.584-5.833 6.666-2.917 11.25-10 11.25-17.5 0-5.833-3.334-11.25-10-16.667-6.667-5.416-20.417-11.666-40.834-19.583-21.25-7.5-40.833-17.5-59.166-30-12.917-9.167-23.75-21.25-31.667-35.417-6.667-13.333-10-27.916-9.583-42.5 0-17.916 5-35 14.166-50.416 10.417-16.667 25.834-30 43.75-38.334 19.584-10 44.167-14.583 73.75-14.583 17.084 0 34.584 1.25 51.667 3.75 12.5 1.667 24.583 5 35.833 9.583 1.667.417 3.334 2.084 4.167 3.75.417 1.667.833 3.334.833 5v67.917c0 1.667-.833 3.333-2.083 4.167-3.75.833-5.833.833-7.5 0z"/></g></g></svg>