<?xml version="1.0" encoding="UTF-8" standalone="no"?><!DOCTYPE svg PUBLIC "-//W3C//DTD SVG 1.1//EN" "http://www.w3.org/Graphics/SVG/1.1/DTD/svg11.dtd"><svg width="100%" height="100%" viewBox="0 0 2471 1671" version="1.1" xmlns="http://www.w3.org/2000/svg" xmlns:xlink="http://www.w3.org/1999/xlink" xml:space="preserve" xmlns:serif="http://www.serif.com/" style="fill-rule:evenodd;clip-rule:evenodd;stroke-linejoin:round;stroke-miterlimit:2;"><rect x="0" y="0" width="2470.83" height="1670.42" style="fill:url(#_Linear1);"/><g><g id="Layer_2_1_"><g id="Surfaces"><g id="Drawing_Surface"><g id="Outline_no_shadow"><path d="M1468.75,181.25l645.833,0c97.917,0 177.084,79.167 177.084,177.083l-0,620.834c-0,97.916 -79.167,177.083 -177.084,177.083l-645.833,0c-97.917,0 -177.083,-79.167 -177.083,-177.083l-0,-620.834c-0,-97.916 79.166,-177.083 177.083,-177.083Z" style="fill:#300;fill-rule:nonzero;"/></g></g></g><g id="Outlined_Mnemonics_Logos"><g id="Ai"><path d="M1776.25,766.25l-155,0l-31.667,97.917c-0.833,3.75 -4.166,6.25 -7.916,5.833l-78.334,0c-4.583,0 -5.833,-2.5 -4.583,-7.5l134.167,-386.25c1.25,-4.167 2.5,-8.75 4.166,-13.75c1.667,-8.75 2.5,-17.917 2.5,-27.083c-0.416,-2.084 1.25,-4.167 3.334,-4.584l107.916,0c3.334,0 5,1.25 5.417,3.334l152.083,429.166c1.25,4.584 0,6.667 -4.166,6.667l-87.084,0c-2.916,0.417 -5.833,-1.667 -6.666,-4.583l-34.167,-99.167Zm-130.833,-84.583l105.833,-0c-2.5,-8.75 -5.833,-19.167 -9.583,-30c-3.75,-11.25 -7.5,-23.334 -11.25,-35.834c-4.167,-12.916 -7.917,-25.416 -12.084,-38.333c-4.166,-12.917 -7.916,-25 -11.25,-37.083c-3.333,-11.667 -6.25,-22.5 -9.166,-32.5l-0.834,-0c-3.75,17.916 -8.333,35.833 -14.166,53.75c-6.25,20 -12.5,40.833 -19.167,61.666c-5.833,21.25 -12.083,40.834 -18.333,58.334Z" style="fill:#ff9a00;fill-rule:nonzero;"/><path d="M1999.17,502.083c-13.75,0.417 -27.084,-5 -37.084,-14.583c-9.583,-10.417 -14.583,-24.167 -14.166,-38.333c-0.417,-14.167 5,-27.5 15,-37.084c10,-9.583 23.333,-14.583 37.083,-14.583c16.25,0 28.75,5 37.917,14.583c9.166,10 14.166,23.334 13.75,37.084c0.416,14.166 -4.584,27.916 -14.584,38.333c-9.583,10 -23.75,15.417 -37.916,14.583Zm-46.667,361.667l-0,-320.833c-0,-4.167 1.667,-5.834 5.417,-5.834l82.5,0c3.75,0 5.416,2.084 5.416,5.834l0,320.833c0,4.583 -1.666,6.667 -5.416,6.667l-81.667,-0c-4.167,-0 -6.25,-2.5 -6.25,-6.667Z" style="fill:#ff9a00;fill-rule:nonzero;"/></g></g></g><g id="Layer_2_2_"><g id="Surfaces_1_"><g id="Photo_Surface"><g id="Outline_no_shadow_1_"><path d="M356.25,181.25l645.833,0c97.917,0 177.084,79.167 177.084,177.083l-0,620.834c-0,97.916 -79.167,177.083 -177.084,177.083l-645.833,0c-97.917,0 -177.083,-79.167 -177.083,-177.083l-0,-620.834c-0,-97.916 79.166,-177.083 177.083,-177.083Z" style="fill:#001e36;fill-rule:nonzero;"/></g></g></g><g id="Outlined_Mnemonics_Logos_1_"><g id="Ps"><path d="M404.167,865l-0,-428.75c-0,-2.917 1.25,-4.583 4.166,-4.583c7.084,-0 13.75,-0 23.334,-0.417c10,-0.417 20.416,-0.417 31.666,-0.833c11.25,-0.417 23.334,-0.417 36.25,-0.834c12.917,-0.416 25.417,-0.416 37.917,-0.416c34.167,-0 62.5,4.166 85.833,12.916c20.834,7.084 40,18.75 55.834,34.167c13.333,13.333 23.75,29.583 30.416,47.5c6.25,17.5 9.584,35.417 9.584,54.167c-0,35.833 -8.334,65.416 -25,88.75c-16.667,23.333 -40,40.833 -67.084,50.833c-28.333,10.417 -59.583,14.167 -93.75,14.167c-10,-0 -16.666,-0 -20.833,-0.417c-4.167,-0.417 -10,-0.417 -17.917,-0.417l0,133.75c0.417,2.917 -1.666,5.417 -4.583,5.834l-80.833,-0c-3.334,-0 -5,-1.667 -5,-5.417Zm90.833,-352.917l0,140c5.833,0.417 11.25,0.834 16.25,0.834l22.083,-0c16.25,-0 32.5,-2.5 47.917,-7.5c13.333,-3.75 25,-11.667 34.167,-22.084c8.75,-10.416 12.916,-24.583 12.916,-42.916c0.417,-12.917 -2.916,-25.834 -9.583,-37.084c-7.083,-10.833 -17.083,-19.166 -29.167,-23.75c-15.416,-6.25 -32.083,-8.75 -49.166,-8.333c-10.834,0 -20.417,0 -28.334,0.417c-8.333,-0.417 -14.166,-0 -17.083,0.416Z" style="fill:#31a8ff;fill-rule:nonzero;"/><path d="M979.167,626.667c-12.5,-6.667 -25.834,-11.25 -40,-14.167c-15.417,-3.333 -30.834,-5.417 -46.667,-5.417c-8.333,-0.416 -17.083,0.834 -25,2.917c-5.417,1.25 -10,4.167 -12.917,8.333c-2.083,3.334 -3.333,7.5 -3.333,11.25c0,3.75 1.667,7.5 4.167,10.834c3.75,4.583 8.75,8.333 14.166,11.25c9.584,5 19.584,9.583 29.584,13.75c22.5,7.5 44.166,17.916 64.166,30.416c13.75,8.75 25,20.417 32.917,34.584c6.667,13.333 10,27.916 9.583,42.916c0.417,19.584 -5.416,39.167 -16.25,55.417c-11.666,16.667 -27.916,29.583 -46.666,37.083c-20.417,8.75 -45.417,13.334 -75.417,13.334c-19.167,-0 -37.917,-1.667 -56.667,-5.417c-14.583,-2.5 -29.166,-7.083 -42.5,-13.333c-2.916,-1.667 -5,-4.584 -4.583,-7.917l0,-72.5c0,-1.25 0.417,-2.917 1.667,-3.75c1.25,-0.833 2.5,-0.417 3.75,0.417c16.25,9.583 33.333,16.25 51.666,20.416c15.834,4.167 32.5,6.25 49.167,6.25c15.833,0 27.083,-2.083 34.583,-5.833c6.667,-2.917 11.25,-10 11.25,-17.5c0,-5.833 -3.333,-11.25 -10,-16.667c-6.666,-5.416 -20.416,-11.666 -40.833,-19.583c-21.25,-7.5 -40.833,-17.5 -59.167,-30c-12.916,-9.167 -23.75,-21.25 -31.666,-35.417c-6.667,-13.333 -10,-27.916 -9.584,-42.5c0,-17.916 5,-35 14.167,-50.416c10.417,-16.667 25.833,-30 43.75,-38.334c19.583,-10 44.167,-14.583 73.75,-14.583c17.083,0 34.583,1.25 51.667,3.75c12.5,1.667 24.583,5 35.833,9.583c1.667,0.417 3.333,2.084 4.167,3.75c0.416,1.667 0.833,3.334 0.833,5l0,67.917c0,1.667 -0.833,3.333 -2.083,4.167c-3.75,0.833 -5.834,0.833 -7.5,-0Z" style="fill:#31a8ff;fill-rule:nonzero;"/></g></g></g></g><g><g opacity="0.4"><path d="M200,1322.5l43.333,0l0,16.667l0.417,-0c6.25,-12.5 14.167,-18.75 24.167,-18.75c12.916,-0 22.5,7.083 28.333,21.25c5.833,14.166 9.167,36.666 9.167,67.083c-0,26.25 -2.5,46.25 -7.917,60.417c-5.417,13.75 -15,20.833 -28.75,20.833c-10,0 -18.333,-5 -25.417,-15l-0.416,0l-0,39.167l16.25,-0l-0,27.083l-59.167,0l-0,-27.083l14.167,-0l-0,-164.167l-14.167,0l-0,-27.5Zm43.333,78.333l0,25.834c0,13.75 1.25,23.333 3.75,29.583c2.5,5.833 6.667,9.167 12.5,9.167c6.25,-0 10.417,-3.334 12.5,-10.417c2.084,-7.083 2.917,-17.5 2.917,-31.25l0,-23.75c0,-19.167 -0.833,-32.5 -2.917,-40.417c-2.083,-7.916 -6.25,-11.666 -12.5,-11.666c-6.25,-0 -10.416,4.583 -12.916,13.333c-2.084,8.75 -3.334,22.083 -3.334,39.583Z" style="fill-rule:nonzero;"/><path d="M321.667,1487.08l-0,-27.5l12.083,0l0,-180.833l-12.083,0l-0,-27.083l41.666,-0l0,78.333c8.334,-7.083 15.834,-10.833 23.334,-10.833c20,-0 30,15.833 30,47.083l-0,93.75l12.083,0l0,27.083l-41.667,0l0,-123.75c0,-11.25 -3.333,-16.666 -9.583,-16.666c-4.167,-0 -8.75,2.5 -14.167,7.916l0,105.417l12.084,0l-0,27.083l-53.75,0Z" style="fill-rule:nonzero;"/><path d="M490,1490.42c-15,-0 -26.25,-7.084 -33.333,-21.25c-7.084,-14.167 -10.417,-35.834 -10.417,-65c-0,-29.584 3.75,-51.25 10.833,-65c7.084,-13.75 18.334,-20.417 33.334,-20.417c29.583,-0 44.583,28.75 44.583,85.833c-0.417,57.5 -15.417,85.834 -45,85.834Zm-0,-144.167c-5.417,-0 -8.75,3.75 -10.417,11.667c-1.666,7.5 -2.5,23.333 -2.5,46.666c0,17.084 0.417,30 1.25,38.334c0.834,8.333 2.084,13.75 3.75,16.666c1.667,2.917 4.584,4.167 7.917,4.167c5.833,0 9.583,-4.583 11.25,-13.333c1.667,-8.75 2.083,-24.167 2.083,-45.417c0,-23.333 -0.833,-39.167 -2.916,-46.667c-1.25,-8.333 -5,-12.083 -10.417,-12.083Z" style="fill-rule:nonzero;"/><path d="M593.75,1350l0,96.25c0,10.833 4.167,16.25 12.917,16.25c3.333,0 7.083,-0.833 11.666,-2.917l0,25.417c-6.666,2.083 -14.166,3.333 -23.333,3.333c-10.833,0 -18.75,-3.333 -23.75,-10c-5,-6.666 -7.5,-17.5 -7.5,-32.5l0,-95.833l-13.75,0l-0,-27.083l14.167,-0l-0,-27.084c10,-6.25 19.583,-13.333 29.166,-21.25l0,48.334l19.584,-0l-0,27.083l-19.167,0Z" style="fill-rule:nonzero;"/><path d="M680,1490.42c-15,-0 -26.25,-7.084 -33.333,-21.25c-7.084,-14.167 -10.417,-35.834 -10.417,-65c0,-29.584 3.75,-51.25 10.833,-65c7.084,-13.75 18.334,-20.417 33.334,-20.417c29.583,-0 44.583,28.75 44.583,85.833c-0.833,57.5 -15.417,85.834 -45,85.834Zm0,-144.167c-5.417,-0 -8.75,3.75 -10.417,11.667c-1.666,7.5 -2.5,23.333 -2.5,46.666c0,17.084 0.417,30 1.25,38.334c0.834,8.333 2.084,13.75 3.75,16.666c1.667,2.917 4.584,4.167 7.917,4.167c5.833,0 9.583,-4.583 11.25,-13.333c1.667,-8.75 2.083,-24.167 2.083,-45.417c0,-23.333 -0.833,-39.167 -2.916,-46.667c-1.667,-8.333 -5,-12.083 -10.417,-12.083Z" style="fill-rule:nonzero;"/><path d="M745.417,1486.67l-0,-56.667l27.083,-0c0.417,21.667 5,32.917 13.75,32.917c6.667,-0 10,-4.584 10,-14.167c0,-8.333 -1.667,-14.167 -5,-18.333c-3.333,-4.167 -9.583,-9.584 -18.333,-16.25c-10.417,-7.917 -17.917,-15.834 -22.084,-23.75c-4.583,-7.5 -6.666,-16.25 -6.666,-26.25c-0,-12.084 2.916,-22.5 8.333,-30.417c5.833,-8.333 12.5,-12.5 20.833,-12.5c8.334,0 15.417,4.583 20.834,14.167l0.416,-0l0,-12.084l27.084,0l-0,53.75l-27.084,0c0,-12.083 -0.833,-20 -2.5,-24.166c-1.666,-4.167 -5,-6.25 -9.166,-6.25c-6.25,-0 -9.584,4.583 -9.584,13.333c0,6.667 1.25,12.083 4.167,16.25c2.917,4.167 8.333,9.167 16.25,15c11.667,8.333 20,16.25 24.583,24.583c4.584,7.917 7.084,17.917 7.084,30c-0,12.5 -2.917,22.917 -8.75,30.834c-5.834,7.916 -13.334,12.083 -22.084,12.083c-8.333,-0 -15.416,-4.583 -21.25,-14.167l-0.416,0l-0,12.084l-27.5,-0Z" style="fill-rule:nonzero;"/><path d="M841.25,1487.08l0,-27.5l12.083,0l0,-180.833l-12.083,0l0,-27.083l41.667,-0l-0,78.333c8.333,-7.083 15.833,-10.833 23.333,-10.833c20,-0 30,15.833 30,47.083l0,93.75l12.083,0l0,27.083l-41.666,0l-0,-123.75c-0,-11.25 -3.334,-16.666 -9.584,-16.666c-4.166,-0 -8.75,2.5 -14.166,7.916l-0,105.417l12.083,0l0,27.083l-53.75,0Z" style="fill-rule:nonzero;"/><path d="M1009.58,1490.42c-15,-0 -26.25,-7.084 -33.333,-21.25c-7.083,-14.167 -10.417,-35.834 -10.417,-65c0,-29.584 3.75,-51.25 10.834,-65c7.083,-13.75 18.333,-20.417 33.333,-20.417c29.583,-0 44.583,28.75 44.583,85.833c-0.416,57.5 -15.416,85.834 -45,85.834Zm0,-144.167c-5.416,-0 -8.75,3.75 -10.416,11.667c-1.667,7.5 -2.5,23.333 -2.5,46.666c-0,17.084 0.416,30 1.25,38.334c0.833,8.333 2.083,13.75 3.75,16.666c1.666,2.917 4.583,4.167 7.916,4.167c5.834,0 9.584,-4.583 11.25,-13.333c1.667,-8.75 2.084,-24.167 2.084,-45.417c-0,-23.333 -0.834,-39.167 -2.917,-46.667c-1.25,-8.333 -5,-12.083 -10.417,-12.083Z" style="fill-rule:nonzero;"/><path d="M1069.17,1322.5l43.333,0l0,16.667l0.417,-0c6.25,-12.5 14.166,-18.75 24.166,-18.75c12.917,-0 22.5,7.083 28.334,21.25c5.833,14.166 9.166,36.666 9.166,67.083c0,26.25 -2.5,46.25 -7.916,60.417c-5.417,13.75 -15,20.833 -28.75,20.833c-10,0 -18.334,-5 -25.417,-15l0,39.167l16.25,-0l0,27.083l-59.583,0l-0,-27.083l14.166,-0l0,-164.167l-14.166,0l-0,-27.5Zm43.333,78.333l0,25.834c0,13.75 1.25,23.333 3.75,29.583c2.5,5.833 6.667,9.167 12.5,9.167c6.25,-0 10.417,-3.334 12.5,-10.417c2.083,-7.083 2.917,-17.5 2.917,-31.25l-0,-23.75c-0,-19.167 -0.834,-32.5 -2.917,-40.417c-2.083,-7.916 -6.25,-11.666 -12.5,-11.666c-6.25,-0 -10.417,4.583 -12.917,13.333c-2.083,8.75 -3.333,22.083 -3.333,39.583Z" style="fill-rule:nonzero;"/><path d="M1312.5,1459.58l0,-109.583l-11.667,0l0,-27.083l41.25,-0l0,136.666l9.167,0l0,27.084l-50.417,-0l0,-27.084l11.667,0Zm13.75,-212.083c5.417,0 9.583,1.667 13.333,5.417c3.75,3.75 5.417,7.916 5.417,13.333c0,5 -1.667,9.583 -5.417,13.333c-3.75,3.75 -7.916,5.417 -13.333,5.417c-5,0 -9.583,-1.667 -13.333,-5.417c-3.75,-3.75 -5.417,-8.333 -5.417,-13.333c0,-5.417 1.667,-9.583 5.417,-13.333c3.75,-3.334 8.333,-5.417 13.333,-5.417Z" style="fill-rule:nonzero;"/><path d="M1378.75,1459.58l0,-180.833l-11.667,0l0,-27.083l40.834,-0l-0,207.916l9.583,0l-0,27.084l-50.417,-0l0,-27.084l11.667,0Z" style="fill-rule:nonzero;"/><path d="M1442.08,1459.58l0,-180.833l-11.666,0l-0,-27.083l40.833,-0l0,207.916l9.583,0l0,27.084l-50.416,-0l-0,-27.084l11.666,0Z" style="fill-rule:nonzero;"/><path d="M1590.42,1322.5l-0,136.667l12.916,-0l0,27.083l-42.5,0l0,-12.917l-0.416,0c-6.667,10 -15,15 -25,15c-18.334,0 -27.917,-13.333 -27.917,-40.416l0,-97.917l-13.333,-0l-0,-27.083l42.916,-0l0,120.833c0,6.667 0.834,11.25 2.084,13.75c1.25,2.5 3.75,4.167 7.5,4.167c3.75,-0 7.083,-1.667 10.416,-5.417c2.917,-3.333 4.584,-5.833 4.584,-6.667l-0,-99.583l-14.167,-0l0,-27.083l42.917,-0l-0,-0.417Z" style="fill-rule:nonzero;"/><path d="M1620.83,1486.67l0,-56.667l27.084,-0c0.416,21.667 5,32.917 13.75,32.917c6.666,-0 10,-4.584 10,-14.167c-0,-8.333 -1.667,-14.167 -5,-18.333c-3.334,-4.167 -9.584,-9.584 -18.334,-16.25c-10.416,-7.917 -17.916,-15.834 -22.083,-23.75c-4.583,-7.5 -6.667,-16.25 -6.667,-26.25c0,-12.084 2.917,-22.5 8.334,-30.417c5.833,-8.333 12.5,-12.5 20.833,-12.5c8.333,0 15.417,4.583 20.833,14.167l0.417,-0l0,-12.084l27.083,0l0,53.75l-27.083,0c0,-12.083 -0.833,-20 -2.5,-24.166c-1.667,-4.167 -5,-6.25 -9.167,-6.25c-6.25,-0 -9.583,4.583 -9.583,13.333c-0,6.667 1.25,12.083 4.167,16.25c2.916,4.167 8.333,9.167 16.25,15c11.666,8.333 20,16.25 24.583,24.583c4.583,7.917 7.083,17.917 7.083,30c0,12.5 -2.916,22.917 -8.75,30.834c-5.833,7.916 -13.333,12.083 -22.083,12.083c-8.333,-0 -15.417,-4.583 -21.25,-14.167l-0.417,0l0,12.084l-27.5,-0Z" style="fill-rule:nonzero;"/><path d="M1759.17,1350l-0,96.25c-0,10.833 4.166,16.25 12.916,16.25c3.334,0 7.084,-0.833 11.667,-2.917l0,25.417c-6.667,2.083 -14.167,3.333 -23.333,3.333c-10.834,0 -18.75,-3.333 -23.75,-10c-5,-6.666 -7.5,-17.5 -7.5,-32.5l-0,-95.833l-14.167,0l0,-27.083l14.167,-0l-0,-27.084c10,-6.25 19.583,-13.333 29.166,-21.25l0,48.334l19.584,-0l-0,27.083l-18.75,0Z" style="fill-rule:nonzero;"/><path d="M1797.08,1487.5l0,-27.917l14.584,0l-0,-109.583l-14.584,0l0,-27.083l44.167,-0l0,32.083l0.417,0c5.416,-13.75 10.416,-22.5 15.833,-27.083c5,-4.584 12.5,-6.667 22.5,-6.667l0,31.25c-25.833,0 -38.75,14.583 -38.75,44.167l0,63.75l16.667,-0l-0,27.083l-60.834,0Z" style="fill-rule:nonzero;"/><path d="M1995,1459.17l0,27.5l-42.083,-0l-0,-14.167l-0.417,0c-6.667,10.417 -15.417,15.833 -26.667,15.833c-10.416,0 -18.75,-4.583 -25.416,-14.166c-6.667,-9.167 -10,-21.25 -10,-36.25c-0,-16.667 3.75,-29.584 10.833,-38.334c7.083,-8.75 16.667,-13.333 27.917,-13.333c9.166,0 17.083,3.75 23.333,11.667l0,-28.334c0,-10.833 -1.25,-17.5 -4.167,-20.833c-2.5,-2.917 -6.25,-4.583 -10.833,-4.583c-9.583,-0 -15,7.083 -16.25,21.25l-27.083,-7.5c2.083,-12.5 7.083,-22.084 15,-28.75c7.916,-6.667 17.5,-10.417 29.166,-10.417c12.5,0 22.917,4.167 31.25,12.083c8.334,7.917 12.5,19.167 12.5,33.334l0,95l12.917,-0Zm-42.083,-5l-0,-35.834c-4.167,-5 -9.167,-7.5 -14.584,-7.5c-11.25,0 -16.666,8.75 -16.666,26.667c-0,17.083 5.416,25.833 16.666,25.833c5.417,-0.416 10,-3.333 14.584,-9.166Z" style="fill-rule:nonzero;"/><path d="M2048.33,1350l0,96.25c0,10.833 4.167,16.25 12.917,16.25c3.333,0 7.083,-0.833 11.667,-2.917l-0,25.417c-6.667,2.083 -14.167,3.333 -23.334,3.333c-10.833,0 -18.75,-3.333 -23.75,-10c-5,-6.666 -7.5,-17.5 -7.5,-32.5l0,-95.833l-14.166,0l-0,-27.083l14.166,-0l0,-27.084c10,-6.25 19.584,-13.333 29.167,-21.25l0,48.334l19.583,-0l0,27.083l-18.75,0Z" style="fill-rule:nonzero;"/><path d="M2134.58,1490.42c-15,-0 -26.25,-7.084 -33.333,-21.25c-7.083,-14.167 -10.417,-35.834 -10.417,-65c0,-29.584 3.75,-51.25 10.834,-65c7.083,-13.75 18.333,-20.417 33.333,-20.417c29.583,-0 44.583,28.75 44.583,85.833c-0.416,57.5 -15.416,85.834 -45,85.834Zm0,-144.167c-5.416,-0 -8.75,3.75 -10.416,11.667c-1.667,7.5 -2.5,23.333 -2.5,46.666c-0,17.084 0.416,30 1.25,38.334c0.833,8.333 2.083,13.75 3.75,16.666c1.666,2.917 4.583,4.167 7.916,4.167c5.834,0 9.584,-4.583 11.25,-13.333c1.667,-8.75 2.084,-24.167 2.084,-45.417c-0,-23.333 -0.834,-39.167 -2.917,-46.667c-1.25,-8.333 -5,-12.083 -10.417,-12.083Z" style="fill-rule:nonzero;"/><path d="M2196.67,1487.5l-0,-27.917l14.583,0l0,-109.583l-14.583,0l-0,-27.083l44.166,-0l0,32.083l0.417,0c5.417,-13.75 10.417,-22.5 15.833,-27.083c5,-4.584 12.5,-6.667 22.5,-6.667l0,31.25c-25.833,0 -38.75,14.583 -38.75,44.167l0,63.75l16.667,-0l0,27.083l-60.833,0Z" style="fill-rule:nonzero;"/></g><g><g><path d="M195.833,1318.33l43.334,0l-0,16.667l0.416,0c6.25,-12.5 14.167,-18.75 24.167,-18.75c12.917,0 22.5,7.083 28.333,21.25c5.834,14.167 9.167,36.667 9.167,67.083c0,26.25 -2.5,46.25 -7.917,60.417c-5.416,13.75 -15,20.833 -28.75,20.833c-10,0 -18.333,-5 -25.416,-15l-0.417,0l-0,39.167l16.25,0l-0,27.083l-59.167,0l0,-27.083l14.167,0l-0,-164.167l-14.167,0l0,-27.5Zm43.334,78.334l-0,25.833c-0,13.75 1.25,23.333 3.75,29.583c2.5,5.834 6.666,9.167 12.5,9.167c6.25,-0 10.416,-3.333 12.5,-10.417c2.083,-7.083 2.916,-17.5 2.916,-31.25l0,-23.75c0,-19.166 -0.833,-32.5 -2.916,-40.416c-2.084,-7.917 -6.25,-11.667 -12.5,-11.667c-6.25,-0 -10.417,4.583 -12.917,13.333c-2.083,8.75 -3.333,22.084 -3.333,39.584Z" style="fill:#31a8ff;fill-rule:nonzero;"/><path d="M317.5,1482.92l0,-27.5l12.083,-0l0,-180.834l-12.083,0l0,-27.083l41.667,0l-0,78.333c8.333,-7.083 15.833,-10.833 23.333,-10.833c20,0 30,15.833 30,47.083l0,93.75l12.083,0l0,27.084l-41.666,-0l-0,-123.75c-0,-11.25 -3.334,-16.667 -9.584,-16.667c-4.166,0 -8.75,2.5 -14.166,7.917l-0,105.416l12.083,0l-0,27.084l-53.75,-0Z" style="fill:#31a8ff;fill-rule:nonzero;"/><path d="M485.833,1486.25c-15,0 -26.25,-7.083 -33.333,-21.25c-7.083,-14.167 -10.417,-35.833 -10.417,-65c0,-29.583 3.75,-51.25 10.834,-65c7.083,-13.75 18.333,-20.417 33.333,-20.417c29.583,0 44.583,28.75 44.583,85.834c-0.416,57.5 -15.416,85.833 -45,85.833Zm0,-144.167c-5.416,0 -8.75,3.75 -10.416,11.667c-1.667,7.5 -2.5,23.333 -2.5,46.667c-0,17.083 0.416,30 1.25,38.333c0.833,8.333 2.083,13.75 3.75,16.667c1.666,2.916 4.583,4.166 7.916,4.166c5.834,0 9.584,-4.583 11.25,-13.333c1.667,-8.75 2.084,-24.167 2.084,-45.417c-0,-23.333 -0.834,-39.166 -2.917,-46.666c-1.25,-8.334 -5,-12.084 -10.417,-12.084Z" style="fill:#31a8ff;fill-rule:nonzero;"/><path d="M589.583,1345.83l0,96.25c0,10.834 4.167,16.25 12.917,16.25c3.333,0 7.083,-0.833 11.667,-2.916l-0,25.416c-6.667,2.084 -14.167,3.334 -23.334,3.334c-10.833,-0 -18.75,-3.334 -23.75,-10c-5,-6.667 -7.5,-17.5 -7.5,-32.5l0,-95.834l-13.75,0l0,-27.083l14.167,0l0,-27.083c10,-6.25 19.583,-13.334 29.167,-21.25l-0,48.333l19.583,0l-0,27.083l-19.167,0Z" style="fill:#31a8ff;fill-rule:nonzero;"/><path d="M675.833,1486.25c-15,0 -26.25,-7.083 -33.333,-21.25c-7.083,-14.167 -10.417,-35.833 -10.417,-65c0,-29.583 3.75,-51.25 10.834,-65c7.083,-13.75 18.333,-20.417 33.333,-20.417c29.583,0 44.583,28.75 44.583,85.834c-0.833,57.5 -15.416,85.833 -45,85.833Zm0,-144.167c-5.416,0 -8.75,3.75 -10.416,11.667c-1.667,7.5 -2.5,23.333 -2.5,46.667c-0,17.083 0.416,30 1.25,38.333c0.833,8.333 2.083,13.75 3.75,16.667c1.666,2.916 4.583,4.166 7.916,4.166c5.834,0 9.584,-4.583 11.25,-13.333c1.667,-8.75 2.084,-24.167 2.084,-45.417c-0,-23.333 -0.834,-39.166 -2.917,-46.666c-1.667,-8.334 -5,-12.084 -10.417,-12.084Z" style="fill:#31a8ff;fill-rule:nonzero;"/><path d="M741.25,1482.5l0,-56.667l27.083,0c0.417,21.667 5,32.917 13.75,32.917c6.667,0 10,-4.583 10,-14.167c0,-8.333 -1.666,-14.166 -5,-18.333c-3.333,-4.167 -9.583,-9.583 -18.333,-16.25c-10.417,-7.917 -17.917,-15.833 -22.083,-23.75c-4.584,-7.5 -6.667,-16.25 -6.667,-26.25c0,-12.083 2.917,-22.5 8.333,-30.417c5.834,-8.333 12.5,-12.5 20.834,-12.5c8.333,0 15.416,4.584 20.833,14.167l0.417,0l-0,-12.083l27.083,-0l0,53.75l-27.083,-0c-0,-12.084 -0.834,-20 -2.5,-24.167c-1.667,-4.167 -5,-6.25 -9.167,-6.25c-6.25,0 -9.583,4.583 -9.583,13.333c-0,6.667 1.25,12.084 4.166,16.25c2.917,4.167 8.334,9.167 16.25,15c11.667,8.334 20,16.25 24.584,24.584c4.583,7.916 7.083,17.916 7.083,30c0,12.5 -2.917,22.916 -8.75,30.833c-5.833,7.917 -13.333,12.083 -22.083,12.083c-8.334,0 -15.417,-4.583 -21.25,-14.166l-0.417,-0l0,12.083l-27.5,-0Z" style="fill:#31a8ff;fill-rule:nonzero;"/><path d="M837.083,1482.92l0,-27.5l12.084,-0l-0,-180.834l-12.084,0l0,-27.083l41.667,0l0,78.333c8.333,-7.083 15.833,-10.833 23.333,-10.833c20,0 30,15.833 30,47.083l0,93.75l12.084,0l-0,27.084l-41.667,-0l0,-123.75c0,-11.25 -3.333,-16.667 -9.583,-16.667c-4.167,0 -8.75,2.5 -14.167,7.917l0,105.416l12.083,0l0,27.084l-53.75,-0Z" style="fill:#31a8ff;fill-rule:nonzero;"/><path d="M1005.42,1486.25c-15,0 -26.25,-7.083 -33.334,-21.25c-7.083,-14.167 -10.416,-35.833 -10.416,-65c-0,-29.583 3.75,-51.25 10.833,-65c7.083,-13.75 18.333,-20.417 33.333,-20.417c29.584,0 44.584,28.75 44.584,85.834c-0.417,57.5 -15.417,85.833 -45,85.833Zm-0,-144.167c-5.417,0 -8.75,3.75 -10.417,11.667c-1.667,7.5 -2.5,23.333 -2.5,46.667c0,17.083 0.417,30 1.25,38.333c0.833,8.333 2.083,13.75 3.75,16.667c1.667,2.916 4.583,4.166 7.917,4.166c5.833,0 9.583,-4.583 11.25,-13.333c1.666,-8.75 2.083,-24.167 2.083,-45.417c0,-23.333 -0.833,-39.166 -2.917,-46.666c-1.25,-8.334 -5,-12.084 -10.416,-12.084Z" style="fill:#31a8ff;fill-rule:nonzero;"/><path d="M1065,1318.33l43.333,0l0,16.667l0.417,0c6.25,-12.5 14.167,-18.75 24.167,-18.75c12.916,0 22.5,7.083 28.333,21.25c5.833,14.167 9.167,36.667 9.167,67.083c-0,26.25 -2.5,46.25 -7.917,60.417c-5.417,13.75 -15,20.833 -28.75,20.833c-10,0 -18.333,-5 -25.417,-15l0,39.167l16.25,0l0,27.083l-59.583,0l0,-27.083l14.167,0l-0,-164.167l-14.167,0l-0,-27.5Zm43.333,78.334l0,25.833c0,13.75 1.25,23.333 3.75,29.583c2.5,5.834 6.667,9.167 12.5,9.167c6.25,-0 10.417,-3.333 12.5,-10.417c2.084,-7.083 2.917,-17.5 2.917,-31.25l0,-23.75c0,-19.166 -0.833,-32.5 -2.917,-40.416c-2.083,-7.917 -6.25,-11.667 -12.5,-11.667c-6.25,-0 -10.416,4.583 -12.916,13.333c-2.084,8.75 -3.334,22.084 -3.334,39.584Z" style="fill:#31a8ff;fill-rule:nonzero;"/><path d="M1308.33,1455.42l0,-109.584l-11.666,0l-0,-27.083l41.25,0l-0,136.667l9.166,-0l0,27.083l-50.416,0l-0,-27.083l11.666,-0Zm13.75,-212.084c5.417,0 9.584,1.667 13.334,5.417c3.75,3.75 5.416,7.917 5.416,13.333c0,5 -1.666,9.584 -5.416,13.334c-3.75,3.75 -7.917,5.416 -13.334,5.416c-5,0 -9.583,-1.666 -13.333,-5.416c-3.75,-3.75 -5.417,-8.334 -5.417,-13.334c0,-5.416 1.667,-9.583 5.417,-13.333c3.75,-3.333 8.333,-5.417 13.333,-5.417Z" style="fill:#ff9a00;fill-rule:nonzero;"/><path d="M1374.58,1455.42l0,-180.834l-11.666,0l-0,-27.083l40.833,0l-0,207.917l9.583,-0l0,27.083l-50.416,0l-0,-27.083l11.666,-0Z" style="fill:#ff9a00;fill-rule:nonzero;"/><path d="M1437.92,1455.42l-0,-180.834l-11.667,0l0,-27.083l40.833,0l0,207.917l9.584,-0l-0,27.083l-50.417,0l0,-27.083l11.667,-0Z" style="fill:#ff9a00;fill-rule:nonzero;"/><path d="M1586.25,1318.33l0,136.667l12.917,0l-0,27.083l-42.5,0l-0,-12.916l-0.417,-0c-6.667,10 -15,15 -25,15c-18.333,-0 -27.917,-13.334 -27.917,-40.417l0,-97.917l-13.333,0l0,-27.083l42.917,-0l-0,120.833c-0,6.667 0.833,11.25 2.083,13.75c1.25,2.5 3.75,4.167 7.5,4.167c3.75,0 7.083,-1.667 10.417,-5.417c2.916,-3.333 4.583,-5.833 4.583,-6.666l0,-99.584l-14.167,0l0,-27.083l42.917,-0l0,-0.417Z" style="fill:#ff9a00;fill-rule:nonzero;"/><path d="M1616.67,1482.5l-0,-56.667l27.083,0c0.417,21.667 5,32.917 13.75,32.917c6.667,0 10,-4.583 10,-14.167c-0,-8.333 -1.667,-14.166 -5,-18.333c-3.333,-4.167 -9.583,-9.583 -18.333,-16.25c-10.417,-7.917 -17.917,-15.833 -22.084,-23.75c-4.583,-7.5 -6.666,-16.25 -6.666,-26.25c-0,-12.083 2.916,-22.5 8.333,-30.417c5.833,-8.333 12.5,-12.5 20.833,-12.5c8.334,0 15.417,4.584 20.834,14.167l0.416,0l0,-12.083l27.084,-0l-0,53.75l-27.084,-0c0,-12.084 -0.833,-20 -2.5,-24.167c-1.666,-4.167 -5,-6.25 -9.166,-6.25c-6.25,0 -9.584,4.583 -9.584,13.333c0,6.667 1.25,12.084 4.167,16.25c2.917,4.167 8.333,9.167 16.25,15c11.667,8.334 20,16.25 24.583,24.584c4.584,7.916 7.084,17.916 7.084,30c-0,12.5 -2.917,22.916 -8.75,30.833c-5.834,7.917 -13.334,12.083 -22.084,12.083c-8.333,0 -15.416,-4.583 -21.25,-14.166l-0.416,-0l-0,12.083l-27.5,-0Z" style="fill:#ff9a00;fill-rule:nonzero;"/><path d="M1755,1345.83l0,96.25c0,10.834 4.167,16.25 12.917,16.25c3.333,0 7.083,-0.833 11.666,-2.916l0,25.416c-6.666,2.084 -14.166,3.334 -23.333,3.334c-10.833,-0 -18.75,-3.334 -23.75,-10c-5,-6.667 -7.5,-17.5 -7.5,-32.5l0,-95.834l-14.167,0l0,-27.083l14.167,0l0,-27.083c10,-6.25 19.583,-13.334 29.167,-21.25l-0,48.333l19.583,0l0,27.083l-18.75,0Z" style="fill:#ff9a00;fill-rule:nonzero;"/><path d="M1792.92,1483.33l-0,-27.916l14.583,-0l0,-109.584l-14.583,0l-0,-27.083l44.166,0l0,32.083l0.417,0c5.417,-13.75 10.417,-22.5 15.833,-27.083c5,-4.583 12.5,-6.667 22.5,-6.667l0,31.25c-25.833,0 -38.75,14.584 -38.75,44.167l0,63.75l16.667,0l0,27.083l-60.833,0Z" style="fill:#ff9a00;fill-rule:nonzero;"/><path d="M1990.83,1455l0,27.5l-42.083,0l0,-14.167l-0.417,0c-6.666,10.417 -15.416,15.834 -26.666,15.834c-10.417,-0 -18.75,-4.584 -25.417,-14.167c-6.667,-9.167 -10,-21.25 -10,-36.25c-0,-16.667 3.75,-29.583 10.833,-38.333c7.084,-8.75 16.667,-13.334 27.917,-13.334c9.167,0 17.083,3.75 23.333,11.667l0,-28.333c0,-10.834 -1.25,-17.5 -4.166,-20.834c-2.5,-2.916 -6.25,-4.583 -10.834,-4.583c-9.583,0 -15,7.083 -16.25,21.25l-27.083,-7.5c2.083,-12.5 7.083,-22.083 15,-28.75c7.917,-6.667 17.5,-10.417 29.167,-10.417c12.5,0 22.916,4.167 31.25,12.084c8.333,7.916 12.5,19.166 12.5,33.333l-0,95l12.916,0Zm-42.083,-5l0,-35.833c-4.167,-5 -9.167,-7.5 -14.583,-7.5c-11.25,-0 -16.667,8.75 -16.667,26.666c0,17.084 5.417,25.834 16.667,25.834c5.416,-0.417 10,-3.334 14.583,-9.167Z" style="fill:#ff9a00;fill-rule:nonzero;"/><path d="M2044.17,1345.83l-0,96.25c-0,10.834 4.166,16.25 12.916,16.25c3.334,0 7.084,-0.833 11.667,-2.916l0,25.416c-6.667,2.084 -14.167,3.334 -23.333,3.334c-10.834,-0 -18.75,-3.334 -23.75,-10c-5,-6.667 -7.5,-17.5 -7.5,-32.5l-0,-95.834l-14.167,0l0,-27.083l14.167,0l-0,-27.083c10,-6.25 19.583,-13.334 29.166,-21.25l0,48.333l19.584,0l-0,27.083l-18.75,0Z" style="fill:#ff9a00;fill-rule:nonzero;"/><path d="M2130.42,1486.25c-15,0 -26.25,-7.083 -33.334,-21.25c-7.083,-14.167 -10.416,-35.833 -10.416,-65c-0,-29.583 3.75,-51.25 10.833,-65c7.083,-13.75 18.333,-20.417 33.333,-20.417c29.584,0 44.584,28.75 44.584,85.834c-0.417,57.5 -15.417,85.833 -45,85.833Zm-0,-144.167c-5.417,0 -8.75,3.75 -10.417,11.667c-1.667,7.5 -2.5,23.333 -2.5,46.667c0,17.083 0.417,30 1.25,38.333c0.833,8.333 2.083,13.75 3.75,16.667c1.667,2.916 4.583,4.166 7.917,4.166c5.833,0 9.583,-4.583 11.25,-13.333c1.666,-8.75 2.083,-24.167 2.083,-45.417c0,-23.333 -0.833,-39.166 -2.917,-46.666c-1.25,-8.334 -5,-12.084 -10.416,-12.084Z" style="fill:#ff9a00;fill-rule:nonzero;"/><path d="M2192.5,1483.33l0,-27.916l14.583,-0l0,-109.584l-14.583,0l0,-27.083l44.167,0l-0,32.083l0.416,0c5.417,-13.75 10.417,-22.5 15.834,-27.083c5,-4.583 12.5,-6.667 22.5,-6.667l-0,31.25c-25.834,0 -38.75,14.584 -38.75,44.167l-0,63.75l16.666,0l0,27.083l-60.833,0Z" style="fill:#ff9a00;fill-rule:nonzero;"/></g></g></g><defs><linearGradient id="_Linear1" x1="0" y1="0" x2="1" y2="0" gradientUnits="userSpaceOnUse" gradientTransform="matrix(2470.83,0,0,2470.83,0,835.273)"><stop offset="0" style="stop-color:#ecf3f3;stop-opacity:1"/><stop offset="0.5" style="stop-color:#cfdfdf;stop-opacity:1"/><stop offset="1" style="stop-color:#bcd2d3;stop-opacity:1"/></linearGradient></defs></svg>