<svg clip-rule="evenodd" fill-rule="evenodd" stroke-linejoin="round" stroke-miterlimit="2" viewBox="0 0 9421 10417" xmlns="http://www.w3.org/2000/svg"><path d="m0 0h9420.83v10416.7h-9420.83z" fill="none"/><g fill-rule="nonzero"><path d="m2974.31 10416.7c958.333 0 1736.11-777.778 1736.11-1736.11v-1736.11h-1736.11c-958.334 0-1736.11 777.778-1736.11 1736.11 0 958.333 777.778 1736.11 1736.11 1736.11z" fill="#0acf83"/><path d="m1238.19 5208.33c0-958.333 777.778-1736.11 1736.11-1736.11h1736.11v3472.22h-1736.11c-958.334 0-1736.11-777.777-1736.11-1736.11z" fill="#a259ff"/><path d="m1238.19 1736.11c0-958.333 777.778-1736.11 1736.11-1736.11h1736.11v3472.22h-1736.11c-958.334 0-1736.11-777.778-1736.11-1736.11z" fill="#f24e1e"/><path d="m4710.42 0h1736.11c958.333 0 1736.11 777.778 1736.11 1736.11 0 958.333-777.778 1736.11-1736.11 1736.11h-1736.11z" fill="#ff7262"/><path d="m8182.64 5208.33c0 958.334-777.778 1736.11-1736.11 1736.11-958.334 0-1736.11-777.777-1736.11-1736.11s777.777-1736.11 1736.11-1736.11 1736.11 777.778 1736.11 1736.11z" fill="#1abcfe"/></g></svg>