<svg clip-rule="evenodd" fill-rule="evenodd" stroke-linejoin="round" stroke-miterlimit="2" viewBox="0 0 475 475" xmlns="http://www.w3.org/2000/svg"><path d="m465.749 216.198-207.27-207.246c-11.926-11.936-31.285-11.936-43.225 0l-43.038 43.042 54.592 54.592c12.691-4.285 27.238-1.412 37.349 8.701 10.165 10.177 13.017 24.848 8.625 37.582l52.616 52.616c12.73-4.386 27.417-1.552 37.581 8.63 14.211 14.207 14.211 37.227 0 51.438-14.212 14.215-37.233 14.215-51.454 0-10.685-10.694-13.328-26.394-7.916-39.559l-49.071-49.071-.004 129.129c3.465 1.715 6.734 4.004 9.621 6.879 14.207 14.205 14.207 37.221 0 51.45-14.211 14.204-37.241 14.204-51.437 0-14.209-14.228-14.209-37.244 0-51.45 3.511-3.505 7.574-6.159 11.91-7.937v-130.329c-4.338-1.771-8.396-4.404-11.913-7.938-10.762-10.754-13.354-26.55-7.835-39.766l-53.816-53.825-142.109 142.104c-11.94 11.946-11.94 31.305 0 43.242l207.259 207.246c11.932 11.937 31.284 11.937 43.233 0l206.3-206.267c11.937-11.942 11.937-31.306 0-43.246" fill="#f05133" fill-rule="nonzero"/></svg>